<svg width="24" height="24" viewBox="0 0 24 24" fill="none" xmlns="http://www.w3.org/2000/svg">
<path d="M14.7 7.30364C14.5168 7.49057 14.4141 7.74189 14.4141 8.00364C14.4141 8.26539 14.5168 8.51671 14.7 8.70364L16.3 10.3036C16.4869 10.4869 16.7382 10.5895 17 10.5895C17.2617 10.5895 17.513 10.4869 17.7 10.3036L21.47 6.53364C21.9728 7.64483 22.1251 8.88288 21.9064 10.0828C21.6878 11.2827 21.1087 12.3875 20.2463 13.2499C19.3838 14.1124 18.279 14.6915 17.0791 14.9101C15.8792 15.1287 14.6412 14.9765 13.53 14.4736L6.61998 21.3836C6.22215 21.7815 5.68259 22.005 5.11998 22.005C4.55737 22.005 4.0178 21.7815 3.61998 21.3836C3.22215 20.9858 2.99866 20.4462 2.99866 19.8836C2.99866 19.321 3.22215 18.7815 3.61998 18.3836L10.53 11.4736C10.0271 10.3625 9.87489 9.12441 10.0935 7.9245C10.3121 6.72459 10.8913 5.6198 11.7537 4.75736C12.6161 3.89493 13.7209 3.31581 14.9208 3.09718C16.1207 2.87856 17.3588 3.03081 18.47 3.53364L14.71 7.29364L14.7 7.30364Z" stroke="#083D4E" stroke-width="2" stroke-linecap="round" stroke-linejoin="round"/>
</svg>
